# xmcd
#
# Track frame offsets:
#	150
#	14868
#	31437
#	54232
#	74971
#	90199
#	108226
#	129467
#	151170
#	173021
#	188668
#	208381
#
# Disc length: 2999 seconds
#
# Revision: 1
# Processed by: cddbd v1.5.2PL0 Copyright (c) Steve Scherf et al.
# Submitted via: audiograbber 1.83.01
#
DISCID=a20bb50c
DTITLE=Imperial Crowns - The calling
DYEAR=2016
DGENRE=Blues
TTITLE0=I gotta right
TTITLE1=The calling
TTITLE2=Grace under pressure
TTITLE3=Wasn't love at first sight
TTITLE4=Love 'n' the devil
TTITLE5=Something of value
TTITLE6=The mark of Cain
TTITLE7=Miz Aphrodite
TTITLE8=Liberate
TTITLE9=Third World War
TTITLE10=Papa Lawd
TTITLE11=Question Mark
EXTD=
EXTT0=
EXTT1=
EXTT2=
EXTT3=
EXTT4=
EXTT5=
EXTT6=
EXTT7=
EXTT8=
EXTT9=
EXTT10=
EXTT11=
PLAYORDER=
